# xmcd
#
# Track frame offsets:
#	150
#	13519
#	27909
#	40216
#	55004
#	71335
#	86728
#	102580
#	115418
#	126420
#	135546
#	152511
#
# Disc length: 2195 seconds
#
# Revision: 1
# Processed by: cddbd v1.5.2PL0 Copyright (c) Steve Scherf et al.
# Submitted via: audiograbber 1.83.01
#
DISCID=9c08910c
DTITLE=George Strait - Troubadour
DYEAR=2008
DGENRE=Country
TTITLE0=Troubadour
TTITLE1=It Was Me
TTITLE2=Brothers of the Highway
TTITLE3=River of Love
TTITLE4=House of Cash
TTITLE5=I Saw God Today
TTITLE6=Give Me More Time
TTITLE7=When You're In Love
TTITLE8=Make Her Fall In Love With Me Song
TTITLE9=West Texas Town
TTITLE10=House With No Doors
TTITLE11=If Heartaches Were Horses
EXTD=
EXTT0=
EXTT1=
EXTT2=
EXTT3=
EXTT4=
EXTT5=
EXTT6=
EXTT7=
EXTT8=
EXTT9=
EXTT10=
EXTT11=
PLAYORDER=
